<svg version="1.1" id="Uploaded to svgrepo.com" xmlns="http://www.w3.org/2000/svg" xmlns:xlink="http://www.w3.org/1999/xlink" width="203px" height="203px" viewBox="-2.24 -2.24 36.48 36.48" xml:space="preserve" fill="#ffffff" stroke="#ffffff">
	<g id="SVGRepo_bgCarrier" stroke-width="0">
	</g>
	<g id="SVGRepo_tracerCarrier" stroke-linecap="round" stroke-linejoin="round">
	</g>
	<g id="SVGRepo_iconCarrier">
		<style type="text/css">
			.blueprint_een{fill:#0095f600;} .st0{fill:#ffffff;}
		</style>
		<path class="blueprint_een" d="M16,0C7.163,0,0,7.163,0,16s7.163,16,16,16s16-7.163,16-16S24.837,0,16,0z M16,30 C8.28,30,2,23.72,2,16C2,8.28,8.28,2,16,2s14,6.28,14,14C30,23.72,23.72,30,16,30z M16,3C8.82,3,3,8.82,3,16s5.82,13,13,13 s13-5.82,13-13S23.18,3,16,3z M16,28C9.383,28,4,22.617,4,16S9.383,4,16,4s12,5.383,12,12S22.617,28,16,28z M22.527,8.468 c-0.179,0-0.365,0.051-0.546,0.168l-7.072,4.576c-0.777,0.304-1.393,0.92-1.697,1.697l-4.576,7.072 c-0.469,0.725,0.119,1.551,0.837,1.551c0.179,0,0.365-0.051,0.546-0.168l7.072-4.576c0.777-0.304,1.393-0.92,1.697-1.697 l4.576-7.072C23.833,9.294,23.245,8.468,22.527,8.468z M16,14c1.105,0,2,0.895,2,2c0,1.105-0.895,2-2,2s-2-0.895-2-2 C14,14.895,14.895,14,16,14z M9.475,22.525l3.665-5.664c0.289,0.96,1.039,1.71,1.999,1.999L9.475,22.525z M18.86,15.14 c-0.289-0.96-1.039-1.71-1.999-1.999l5.662-3.662L18.86,15.14z">
		</path>
	</g>
</svg>
